G04 #@! TF.GenerationSoftware,KiCad,Pcbnew,5.1.5+dfsg1-2build2*
G04 #@! TF.CreationDate,2022-04-03T20:03:19+02:00*
G04 #@! TF.ProjectId,rincePile,72696e63-6550-4696-9c65-2e6b69636164,rev?*
G04 #@! TF.SameCoordinates,Original*
G04 #@! TF.FileFunction,Soldermask,Top*
G04 #@! TF.FilePolarity,Negative*
%FSLAX46Y46*%
G04 Gerber Fmt 4.6, Leading zero omitted, Abs format (unit mm)*
G04 Created by KiCad (PCBNEW 5.1.5+dfsg1-2build2) date 2022-04-03 20:03:19*
%MOMM*%
%LPD*%
G04 APERTURE LIST*
%ADD10C,0.100000*%
G04 APERTURE END LIST*
D10*
G36*
X105687395Y13106454D02*
G01*
X105860466Y13034766D01*
X105860467Y13034765D01*
X106016227Y12930690D01*
X106148690Y12798227D01*
X106148691Y12798225D01*
X106252766Y12642466D01*
X106324454Y12469395D01*
X106361000Y12285667D01*
X106361000Y12098333D01*
X106324454Y11914605D01*
X106252766Y11741534D01*
X106252765Y11741533D01*
X106148690Y11585773D01*
X106016227Y11453310D01*
X105937818Y11400919D01*
X105860466Y11349234D01*
X105687395Y11277546D01*
X105503667Y11241000D01*
X105316333Y11241000D01*
X105132605Y11277546D01*
X104959534Y11349234D01*
X104882182Y11400919D01*
X104803773Y11453310D01*
X104671310Y11585773D01*
X104567235Y11741533D01*
X104567234Y11741534D01*
X104495546Y11914605D01*
X104459000Y12098333D01*
X104459000Y12285667D01*
X104495546Y12469395D01*
X104567234Y12642466D01*
X104671309Y12798225D01*
X104671310Y12798227D01*
X104803773Y12930690D01*
X104959533Y13034765D01*
X104959534Y13034766D01*
X105132605Y13106454D01*
X105316333Y13143000D01*
X105503667Y13143000D01*
X105687395Y13106454D01*
G37*
G36*
X103821000Y11241000D02*
G01*
X101919000Y11241000D01*
X101919000Y13143000D01*
X103821000Y13143000D01*
X103821000Y11241000D01*
G37*
G36*
X109468228Y13318297D02*
G01*
X109623100Y13254147D01*
X109762481Y13161015D01*
X109881015Y13042481D01*
X109974147Y12903100D01*
X110038297Y12748228D01*
X110071000Y12583816D01*
X110071000Y12416184D01*
X110038297Y12251772D01*
X109974147Y12096900D01*
X109881015Y11957519D01*
X109762481Y11838985D01*
X109623100Y11745853D01*
X109468228Y11681703D01*
X109303816Y11649000D01*
X109136184Y11649000D01*
X108971772Y11681703D01*
X108816900Y11745853D01*
X108677519Y11838985D01*
X108558985Y11957519D01*
X108465853Y12096900D01*
X108401703Y12251772D01*
X108369000Y12416184D01*
X108369000Y12583816D01*
X108401703Y12748228D01*
X108465853Y12903100D01*
X108558985Y13042481D01*
X108677519Y13161015D01*
X108816900Y13254147D01*
X108971772Y13318297D01*
X109136184Y13351000D01*
X109303816Y13351000D01*
X109468228Y13318297D01*
G37*
G36*
X99308228Y13318297D02*
G01*
X99463100Y13254147D01*
X99602481Y13161015D01*
X99721015Y13042481D01*
X99814147Y12903100D01*
X99878297Y12748228D01*
X99911000Y12583816D01*
X99911000Y12416184D01*
X99878297Y12251772D01*
X99814147Y12096900D01*
X99721015Y11957519D01*
X99602481Y11838985D01*
X99463100Y11745853D01*
X99308228Y11681703D01*
X99143816Y11649000D01*
X98976184Y11649000D01*
X98811772Y11681703D01*
X98656900Y11745853D01*
X98517519Y11838985D01*
X98398985Y11957519D01*
X98305853Y12096900D01*
X98241703Y12251772D01*
X98209000Y12416184D01*
X98209000Y12583816D01*
X98241703Y12748228D01*
X98305853Y12903100D01*
X98398985Y13042481D01*
X98517519Y13161015D01*
X98656900Y13254147D01*
X98811772Y13318297D01*
X98976184Y13351000D01*
X99143816Y13351000D01*
X99308228Y13318297D01*
G37*
G36*
X98945000Y14593000D02*
G01*
X97143000Y14593000D01*
X97143000Y16395000D01*
X98945000Y16395000D01*
X98945000Y14593000D01*
G37*
G36*
X101863512Y16856073D02*
G01*
X102012812Y16826376D01*
X102176784Y16758456D01*
X102324354Y16659853D01*
X102449853Y16534354D01*
X102548456Y16386784D01*
X102616376Y16222812D01*
X102646073Y16073512D01*
X102650949Y16049000D01*
X102651000Y16048741D01*
X102651000Y15871259D01*
X102616376Y15697188D01*
X102548456Y15533216D01*
X102449853Y15385646D01*
X102324354Y15260147D01*
X102176784Y15161544D01*
X102012812Y15093624D01*
X101863512Y15063927D01*
X101838742Y15059000D01*
X101661258Y15059000D01*
X101636488Y15063927D01*
X101487188Y15093624D01*
X101323216Y15161544D01*
X101175646Y15260147D01*
X101050147Y15385646D01*
X100951544Y15533216D01*
X100883624Y15697188D01*
X100849000Y15871259D01*
X100849000Y16048741D01*
X100849052Y16049000D01*
X100853927Y16073512D01*
X100883624Y16222812D01*
X100951544Y16386784D01*
X101050147Y16534354D01*
X101175646Y16659853D01*
X101323216Y16758456D01*
X101487188Y16826376D01*
X101636488Y16856073D01*
X101661258Y16861000D01*
X101838742Y16861000D01*
X101863512Y16856073D01*
G37*
G36*
X104403512Y16856073D02*
G01*
X104552812Y16826376D01*
X104716784Y16758456D01*
X104864354Y16659853D01*
X104989853Y16534354D01*
X105088456Y16386784D01*
X105156376Y16222812D01*
X105186073Y16073512D01*
X105190949Y16049000D01*
X105191000Y16048741D01*
X105191000Y15871259D01*
X105156376Y15697188D01*
X105088456Y15533216D01*
X104989853Y15385646D01*
X104864354Y15260147D01*
X104716784Y15161544D01*
X104552812Y15093624D01*
X104403512Y15063927D01*
X104378742Y15059000D01*
X104201258Y15059000D01*
X104176488Y15063927D01*
X104027188Y15093624D01*
X103863216Y15161544D01*
X103715646Y15260147D01*
X103590147Y15385646D01*
X103491544Y15533216D01*
X103423624Y15697188D01*
X103389000Y15871259D01*
X103389000Y16048741D01*
X103389052Y16049000D01*
X103393927Y16073512D01*
X103423624Y16222812D01*
X103491544Y16386784D01*
X103590147Y16534354D01*
X103715646Y16659853D01*
X103863216Y16758456D01*
X104027188Y16826376D01*
X104176488Y16856073D01*
X104201258Y16861000D01*
X104378742Y16861000D01*
X104403512Y16856073D01*
G37*
G36*
X111051000Y17924000D02*
G01*
X110886660Y17924000D01*
X110862274Y17921598D01*
X110838825Y17914485D01*
X110817214Y17902934D01*
X110798272Y17887389D01*
X110782727Y17868447D01*
X110771176Y17846836D01*
X110764063Y17823387D01*
X110761661Y17799001D01*
X110764063Y17774615D01*
X110771176Y17751166D01*
X110782727Y17729555D01*
X110798272Y17710613D01*
X110807345Y17702391D01*
X110884264Y17639264D01*
X110956244Y17551557D01*
X110990429Y17487601D01*
X111009728Y17451495D01*
X111009729Y17451492D01*
X111042666Y17342916D01*
X111053787Y17230000D01*
X111042666Y17117084D01*
X111009729Y17008508D01*
X111009728Y17008505D01*
X110990429Y16972399D01*
X110956244Y16908443D01*
X110884264Y16820736D01*
X110796557Y16748756D01*
X110715141Y16705239D01*
X110694766Y16691625D01*
X110677439Y16674298D01*
X110663826Y16653924D01*
X110654448Y16631285D01*
X110649668Y16607252D01*
X110649668Y16582748D01*
X110654448Y16558715D01*
X110663826Y16536076D01*
X110677440Y16515701D01*
X110694767Y16498374D01*
X110715141Y16484761D01*
X110796557Y16441244D01*
X110884264Y16369264D01*
X110956244Y16281557D01*
X110987643Y16222812D01*
X111009728Y16181495D01*
X111009729Y16181492D01*
X111042666Y16072916D01*
X111053787Y15960000D01*
X111042666Y15847084D01*
X111009729Y15738508D01*
X111009728Y15738505D01*
X110990429Y15702399D01*
X110956244Y15638443D01*
X110884264Y15550736D01*
X110796557Y15478756D01*
X110732601Y15444571D01*
X110696495Y15425272D01*
X110696492Y15425271D01*
X110587916Y15392334D01*
X110503298Y15384000D01*
X109996702Y15384000D01*
X109912084Y15392334D01*
X109803508Y15425271D01*
X109803505Y15425272D01*
X109767399Y15444571D01*
X109703443Y15478756D01*
X109615736Y15550736D01*
X109543756Y15638443D01*
X109509571Y15702399D01*
X109490272Y15738505D01*
X109490271Y15738508D01*
X109457334Y15847084D01*
X109446213Y15960000D01*
X109457334Y16072916D01*
X109490271Y16181492D01*
X109490272Y16181495D01*
X109512357Y16222812D01*
X109543756Y16281557D01*
X109615736Y16369264D01*
X109703443Y16441244D01*
X109784859Y16484761D01*
X109805234Y16498375D01*
X109822561Y16515702D01*
X109836174Y16536076D01*
X109845552Y16558715D01*
X109850332Y16582748D01*
X109850332Y16607252D01*
X109845552Y16631285D01*
X109836174Y16653924D01*
X109822560Y16674299D01*
X109805233Y16691626D01*
X109784859Y16705239D01*
X109703443Y16748756D01*
X109615736Y16820736D01*
X109543756Y16908443D01*
X109509571Y16972399D01*
X109490272Y17008505D01*
X109490271Y17008508D01*
X109457334Y17117084D01*
X109446213Y17230000D01*
X109457334Y17342916D01*
X109490271Y17451492D01*
X109490272Y17451495D01*
X109509571Y17487601D01*
X109543756Y17551557D01*
X109615736Y17639264D01*
X109692646Y17702383D01*
X109709965Y17719702D01*
X109723579Y17740077D01*
X109732957Y17762716D01*
X109737737Y17786749D01*
X109737737Y17811253D01*
X109732957Y17835286D01*
X109723579Y17857925D01*
X109709966Y17878299D01*
X109692639Y17895626D01*
X109672264Y17909240D01*
X109649625Y17918618D01*
X109625592Y17923398D01*
X109613340Y17924000D01*
X109449000Y17924000D01*
X109449000Y19076000D01*
X111051000Y19076000D01*
X111051000Y17924000D01*
G37*
G36*
X107801000Y16049000D02*
G01*
X106199000Y16049000D01*
X106199000Y18451000D01*
X107801000Y18451000D01*
X107801000Y16049000D01*
G37*
G36*
X98157512Y18930073D02*
G01*
X98306812Y18900376D01*
X98470784Y18832456D01*
X98618354Y18733853D01*
X98743853Y18608354D01*
X98842456Y18460784D01*
X98910376Y18296812D01*
X98945000Y18122741D01*
X98945000Y17945259D01*
X98910376Y17771188D01*
X98842456Y17607216D01*
X98743853Y17459646D01*
X98618354Y17334147D01*
X98470784Y17235544D01*
X98306812Y17167624D01*
X98157512Y17137927D01*
X98132742Y17133000D01*
X97955258Y17133000D01*
X97930488Y17137927D01*
X97781188Y17167624D01*
X97617216Y17235544D01*
X97469646Y17334147D01*
X97344147Y17459646D01*
X97245544Y17607216D01*
X97177624Y17771188D01*
X97143000Y17945259D01*
X97143000Y18122741D01*
X97177624Y18296812D01*
X97245544Y18460784D01*
X97344147Y18608354D01*
X97469646Y18733853D01*
X97617216Y18832456D01*
X97781188Y18900376D01*
X97930488Y18930073D01*
X97955258Y18935000D01*
X98132742Y18935000D01*
X98157512Y18930073D01*
G37*
G36*
X102651000Y17599000D02*
G01*
X100849000Y17599000D01*
X100849000Y19401000D01*
X102651000Y19401000D01*
X102651000Y17599000D01*
G37*
G36*
X104403512Y19396073D02*
G01*
X104552812Y19366376D01*
X104716784Y19298456D01*
X104864354Y19199853D01*
X104989853Y19074354D01*
X105088456Y18926784D01*
X105156376Y18762812D01*
X105191000Y18588741D01*
X105191000Y18411259D01*
X105156376Y18237188D01*
X105088456Y18073216D01*
X104989853Y17925646D01*
X104864354Y17800147D01*
X104716784Y17701544D01*
X104552812Y17633624D01*
X104403512Y17603927D01*
X104378742Y17599000D01*
X104201258Y17599000D01*
X104176488Y17603927D01*
X104027188Y17633624D01*
X103863216Y17701544D01*
X103715646Y17800147D01*
X103590147Y17925646D01*
X103491544Y18073216D01*
X103423624Y18237188D01*
X103389000Y18411259D01*
X103389000Y18588741D01*
X103423624Y18762812D01*
X103491544Y18926784D01*
X103590147Y19074354D01*
X103715646Y19199853D01*
X103863216Y19298456D01*
X104027188Y19366376D01*
X104176488Y19396073D01*
X104201258Y19401000D01*
X104378742Y19401000D01*
X104403512Y19396073D01*
G37*
G36*
X108783074Y21506095D02*
G01*
X108956145Y21434407D01*
X108956146Y21434406D01*
X109111906Y21330331D01*
X109244369Y21197868D01*
X109244370Y21197866D01*
X109348445Y21042107D01*
X109420133Y20869036D01*
X109456679Y20685308D01*
X109456679Y20497974D01*
X109420133Y20314246D01*
X109348445Y20141175D01*
X109348444Y20141174D01*
X109244369Y19985414D01*
X109111906Y19852951D01*
X109033497Y19800560D01*
X108956145Y19748875D01*
X108783074Y19677187D01*
X108599346Y19640641D01*
X108412012Y19640641D01*
X108228284Y19677187D01*
X108055213Y19748875D01*
X107977861Y19800560D01*
X107899452Y19852951D01*
X107766989Y19985414D01*
X107662914Y20141174D01*
X107662913Y20141175D01*
X107591225Y20314246D01*
X107554679Y20497974D01*
X107554679Y20685308D01*
X107591225Y20869036D01*
X107662913Y21042107D01*
X107766988Y21197866D01*
X107766989Y21197868D01*
X107899452Y21330331D01*
X108055212Y21434406D01*
X108055213Y21434407D01*
X108228284Y21506095D01*
X108412012Y21542641D01*
X108599346Y21542641D01*
X108783074Y21506095D01*
G37*
G36*
X99812443Y21510147D02*
G01*
X99985514Y21438459D01*
X100062866Y21386774D01*
X100141275Y21334383D01*
X100273738Y21201920D01*
X100326129Y21123511D01*
X100377814Y21046159D01*
X100449502Y20873088D01*
X100486048Y20689360D01*
X100486048Y20502026D01*
X100449502Y20318298D01*
X100377814Y20145227D01*
X100375106Y20141174D01*
X100273738Y19989466D01*
X100141275Y19857003D01*
X100135209Y19852950D01*
X99985514Y19752927D01*
X99812443Y19681239D01*
X99628715Y19644693D01*
X99441381Y19644693D01*
X99257653Y19681239D01*
X99084582Y19752927D01*
X98934887Y19852950D01*
X98928821Y19857003D01*
X98796358Y19989466D01*
X98694990Y20141174D01*
X98692282Y20145227D01*
X98620594Y20318298D01*
X98584048Y20502026D01*
X98584048Y20689360D01*
X98620594Y20873088D01*
X98692282Y21046159D01*
X98743967Y21123511D01*
X98796358Y21201920D01*
X98928821Y21334383D01*
X99007230Y21386774D01*
X99084582Y21438459D01*
X99257653Y21510147D01*
X99441381Y21546693D01*
X99628715Y21546693D01*
X99812443Y21510147D01*
G37*
G36*
X104025000Y21705000D02*
G01*
X102223000Y21705000D01*
X102223000Y23507000D01*
X104025000Y23507000D01*
X104025000Y21705000D01*
G37*
G36*
X105777512Y23502073D02*
G01*
X105926812Y23472376D01*
X106090784Y23404456D01*
X106238354Y23305853D01*
X106363853Y23180354D01*
X106462456Y23032784D01*
X106530376Y22868812D01*
X106565000Y22694741D01*
X106565000Y22517259D01*
X106530376Y22343188D01*
X106462456Y22179216D01*
X106363853Y22031646D01*
X106238354Y21906147D01*
X106090784Y21807544D01*
X105926812Y21739624D01*
X105777512Y21709927D01*
X105752742Y21705000D01*
X105575258Y21705000D01*
X105550488Y21709927D01*
X105401188Y21739624D01*
X105237216Y21807544D01*
X105089646Y21906147D01*
X104964147Y22031646D01*
X104865544Y22179216D01*
X104797624Y22343188D01*
X104763000Y22517259D01*
X104763000Y22694741D01*
X104797624Y22868812D01*
X104865544Y23032784D01*
X104964147Y23180354D01*
X105089646Y23305853D01*
X105237216Y23404456D01*
X105401188Y23472376D01*
X105550488Y23502073D01*
X105575258Y23507000D01*
X105752742Y23507000D01*
X105777512Y23502073D01*
G37*
G36*
X109456679Y22180641D02*
G01*
X107554679Y22180641D01*
X107554679Y24082641D01*
X109456679Y24082641D01*
X109456679Y22180641D01*
G37*
G36*
X100486048Y22184693D02*
G01*
X98584048Y22184693D01*
X98584048Y24086693D01*
X100486048Y24086693D01*
X100486048Y22184693D01*
G37*
M02*
