G04 #@! TF.GenerationSoftware,KiCad,Pcbnew,5.1.5+dfsg1-2build2*
G04 #@! TF.CreationDate,2022-04-03T20:03:19+02:00*
G04 #@! TF.ProjectId,rincePile,72696e63-6550-4696-9c65-2e6b69636164,rev?*
G04 #@! TF.SameCoordinates,Original*
G04 #@! TF.FileFunction,Copper,L2,Bot*
G04 #@! TF.FilePolarity,Positive*
%FSLAX46Y46*%
G04 Gerber Fmt 4.6, Leading zero omitted, Abs format (unit mm)*
G04 Created by KiCad (PCBNEW 5.1.5+dfsg1-2build2) date 2022-04-03 20:03:19*
%MOMM*%
%LPD*%
G04 APERTURE LIST*
%ADD10O,1.700000X1.700000*%
%ADD11R,1.700000X1.700000*%
%ADD12C,1.800000*%
%ADD13R,1.800000X1.800000*%
%ADD14O,1.600000X1.600000*%
%ADD15C,1.600000*%
%ADD16R,1.500000X1.050000*%
%ADD17O,1.500000X1.050000*%
%ADD18C,0.750000*%
%ADD19C,0.250000*%
%ADD20C,0.254000*%
G04 APERTURE END LIST*
D10*
X98044000Y18034000D03*
D11*
X98044000Y15494000D03*
D10*
X105664000Y22606000D03*
D11*
X103124000Y22606000D03*
D12*
X99535048Y20595693D03*
D13*
X99535048Y23135693D03*
D14*
X109220000Y12500000D03*
D15*
X99060000Y12500000D03*
D16*
X110250000Y18500000D03*
D17*
X110250000Y15960000D03*
X110250000Y17230000D03*
D12*
X105410000Y12192000D03*
D13*
X102870000Y12192000D03*
D12*
X108505679Y20591641D03*
D13*
X108505679Y23131641D03*
D10*
X104290000Y15960000D03*
X101750000Y15960000D03*
X104290000Y18500000D03*
D11*
X101750000Y18500000D03*
D18*
X100324999Y17074999D02*
X101750000Y18500000D01*
X100324999Y15275999D02*
X100324999Y17074999D01*
X101065999Y14534999D02*
X100324999Y15275999D01*
X104339793Y14534999D02*
X101065999Y14534999D01*
X105410000Y13464792D02*
X104339793Y14534999D01*
X105410000Y12192000D02*
X105410000Y13464792D01*
X109220000Y13631370D02*
X109220000Y12500000D01*
X105201369Y17650001D02*
X109220000Y13631370D01*
X105139999Y17650001D02*
X105201369Y17650001D01*
X104290000Y18500000D02*
X105139999Y17650001D01*
D19*
X107355679Y23131641D02*
X108505679Y23131641D01*
X107280678Y23056640D02*
X107355679Y23131641D01*
X107280678Y18772227D02*
X107280678Y23056640D01*
X110092905Y15960000D02*
X107280678Y18772227D01*
X110250000Y15960000D02*
X110092905Y15960000D01*
D20*
G36*
X105022820Y27185353D02*
G01*
X106185821Y26997328D01*
X107315230Y26662126D01*
X108392502Y26185250D01*
X109399947Y25574530D01*
X110321025Y24839995D01*
X111140610Y23993706D01*
X111845245Y23049559D01*
X112423361Y22023056D01*
X112865464Y20931054D01*
X113164295Y19791481D01*
X113314947Y18623051D01*
X113314947Y17444949D01*
X113164295Y16276519D01*
X112865464Y15136946D01*
X112423361Y14044944D01*
X111845245Y13018441D01*
X111140610Y12074294D01*
X110321025Y11228005D01*
X109399947Y10493470D01*
X108392502Y9882750D01*
X107315230Y9405874D01*
X106185821Y9070672D01*
X105022820Y8882647D01*
X103845323Y8844887D01*
X102672665Y8958012D01*
X101524100Y9220164D01*
X100418488Y9627039D01*
X99373983Y10171957D01*
X98407736Y10845969D01*
X97535613Y11638008D01*
X96771934Y12535069D01*
X96702763Y12641335D01*
X97625000Y12641335D01*
X97625000Y12358665D01*
X97680147Y12081426D01*
X97788320Y11820273D01*
X97945363Y11585241D01*
X98145241Y11385363D01*
X98380273Y11228320D01*
X98641426Y11120147D01*
X98918665Y11065000D01*
X99201335Y11065000D01*
X99478574Y11120147D01*
X99739727Y11228320D01*
X99835031Y11292000D01*
X101331928Y11292000D01*
X101344188Y11167518D01*
X101380498Y11047820D01*
X101439463Y10937506D01*
X101518815Y10840815D01*
X101615506Y10761463D01*
X101725820Y10702498D01*
X101845518Y10666188D01*
X101970000Y10653928D01*
X102584250Y10657000D01*
X102743000Y10815750D01*
X102743000Y12065000D01*
X101493750Y12065000D01*
X101335000Y11906250D01*
X101331928Y11292000D01*
X99835031Y11292000D01*
X99974759Y11385363D01*
X100174637Y11585241D01*
X100331680Y11820273D01*
X100439853Y12081426D01*
X100495000Y12358665D01*
X100495000Y12641335D01*
X100439853Y12918574D01*
X100331680Y13179727D01*
X100174637Y13414759D01*
X99974759Y13614637D01*
X99739727Y13771680D01*
X99478574Y13879853D01*
X99201335Y13935000D01*
X98918665Y13935000D01*
X98641426Y13879853D01*
X98380273Y13771680D01*
X98145241Y13614637D01*
X97945363Y13414759D01*
X97788320Y13179727D01*
X97680147Y12918574D01*
X97625000Y12641335D01*
X96702763Y12641335D01*
X96129238Y13522423D01*
X95618078Y14583856D01*
X95246849Y15701941D01*
X95121808Y16344000D01*
X96555928Y16344000D01*
X96555928Y14644000D01*
X96568188Y14519518D01*
X96604498Y14399820D01*
X96663463Y14289506D01*
X96742815Y14192815D01*
X96839506Y14113463D01*
X96949820Y14054498D01*
X97069518Y14018188D01*
X97194000Y14005928D01*
X98894000Y14005928D01*
X99018482Y14018188D01*
X99138180Y14054498D01*
X99248494Y14113463D01*
X99345185Y14192815D01*
X99424537Y14289506D01*
X99483502Y14399820D01*
X99519812Y14519518D01*
X99532072Y14644000D01*
X99532072Y14650112D01*
X99607366Y14558366D01*
X99645905Y14526738D01*
X100316738Y13855905D01*
X100348366Y13817366D01*
X100502159Y13691152D01*
X100677619Y13597367D01*
X100868005Y13539614D01*
X101016391Y13524999D01*
X101016393Y13524999D01*
X101065998Y13520113D01*
X101115603Y13524999D01*
X101503890Y13524999D01*
X101439463Y13446494D01*
X101380498Y13336180D01*
X101344188Y13216482D01*
X101331928Y13092000D01*
X101335000Y12477750D01*
X101493750Y12319000D01*
X102743000Y12319000D01*
X102743000Y12339000D01*
X102997000Y12339000D01*
X102997000Y12319000D01*
X103017000Y12319000D01*
X103017000Y12065000D01*
X102997000Y12065000D01*
X102997000Y10815750D01*
X103155750Y10657000D01*
X103770000Y10653928D01*
X103894482Y10666188D01*
X104014180Y10702498D01*
X104124494Y10761463D01*
X104221185Y10840815D01*
X104300537Y10937506D01*
X104359502Y11047820D01*
X104365056Y11066127D01*
X104431495Y10999688D01*
X104682905Y10831701D01*
X104962257Y10715989D01*
X105258816Y10657000D01*
X105561184Y10657000D01*
X105857743Y10715989D01*
X106137095Y10831701D01*
X106388505Y10999688D01*
X106602312Y11213495D01*
X106770299Y11464905D01*
X106886011Y11744257D01*
X106945000Y12040816D01*
X106945000Y12343184D01*
X106886011Y12639743D01*
X106770299Y12919095D01*
X106602312Y13170505D01*
X106420000Y13352817D01*
X106420000Y13415188D01*
X106424886Y13464793D01*
X106418956Y13524999D01*
X106405385Y13662786D01*
X106347632Y13853172D01*
X106253847Y14028632D01*
X106127633Y14182425D01*
X106089094Y14214053D01*
X105366627Y14936520D01*
X105443475Y15013368D01*
X105605990Y15256589D01*
X105717932Y15526842D01*
X105747504Y15675510D01*
X108066467Y13356547D01*
X107948320Y13179727D01*
X107840147Y12918574D01*
X107785000Y12641335D01*
X107785000Y12358665D01*
X107840147Y12081426D01*
X107948320Y11820273D01*
X108105363Y11585241D01*
X108305241Y11385363D01*
X108540273Y11228320D01*
X108801426Y11120147D01*
X109078665Y11065000D01*
X109361335Y11065000D01*
X109638574Y11120147D01*
X109899727Y11228320D01*
X110134759Y11385363D01*
X110334637Y11585241D01*
X110491680Y11820273D01*
X110599853Y12081426D01*
X110655000Y12358665D01*
X110655000Y12641335D01*
X110599853Y12918574D01*
X110491680Y13179727D01*
X110334637Y13414759D01*
X110230000Y13519396D01*
X110230000Y13581773D01*
X110234885Y13631371D01*
X110230000Y13680969D01*
X110230000Y13680978D01*
X110215385Y13829364D01*
X110157632Y14019750D01*
X110063847Y14195210D01*
X109937633Y14349003D01*
X109899100Y14380626D01*
X108625536Y15654190D01*
X108906036Y15654190D01*
X108914728Y15592663D01*
X109007725Y15383118D01*
X109139816Y15195742D01*
X109305924Y15037736D01*
X109499666Y14915172D01*
X109713596Y14832761D01*
X109939493Y14793669D01*
X110123000Y14953402D01*
X110123000Y15833000D01*
X110377000Y15833000D01*
X110377000Y14953402D01*
X110560507Y14793669D01*
X110786404Y14832761D01*
X111000334Y14915172D01*
X111194076Y15037736D01*
X111360184Y15195742D01*
X111492275Y15383118D01*
X111585272Y15592663D01*
X111593964Y15654190D01*
X111468163Y15833000D01*
X110377000Y15833000D01*
X110123000Y15833000D01*
X109031837Y15833000D01*
X108906036Y15654190D01*
X108625536Y15654190D01*
X105950630Y18329095D01*
X105919002Y18367634D01*
X105775000Y18485813D01*
X105775000Y18646260D01*
X105717932Y18933158D01*
X105605990Y19203411D01*
X105443475Y19446632D01*
X105236632Y19653475D01*
X104993411Y19815990D01*
X104723158Y19927932D01*
X104436260Y19985000D01*
X104143740Y19985000D01*
X103856842Y19927932D01*
X103586589Y19815990D01*
X103343368Y19653475D01*
X103211513Y19521620D01*
X103189502Y19594180D01*
X103130537Y19704494D01*
X103051185Y19801185D01*
X102954494Y19880537D01*
X102844180Y19939502D01*
X102724482Y19975812D01*
X102600000Y19988072D01*
X100944835Y19988072D01*
X101011059Y20147950D01*
X101070048Y20444509D01*
X101070048Y20746877D01*
X101011059Y21043436D01*
X100895347Y21322788D01*
X100727360Y21574198D01*
X100660921Y21640637D01*
X100679228Y21646191D01*
X100789542Y21705156D01*
X100886233Y21784508D01*
X100965585Y21881199D01*
X101024550Y21991513D01*
X101060860Y22111211D01*
X101073120Y22235693D01*
X101070048Y22849943D01*
X100911298Y23008693D01*
X99662048Y23008693D01*
X99662048Y22988693D01*
X99408048Y22988693D01*
X99408048Y23008693D01*
X98158798Y23008693D01*
X98000048Y22849943D01*
X97996976Y22235693D01*
X98009236Y22111211D01*
X98045546Y21991513D01*
X98104511Y21881199D01*
X98183863Y21784508D01*
X98280554Y21705156D01*
X98390868Y21646191D01*
X98409175Y21640637D01*
X98342736Y21574198D01*
X98174749Y21322788D01*
X98059037Y21043436D01*
X98000048Y20746877D01*
X98000048Y20444509D01*
X98059037Y20147950D01*
X98174749Y19868598D01*
X98342736Y19617188D01*
X98512724Y19447200D01*
X98477158Y19461932D01*
X98190260Y19519000D01*
X97897740Y19519000D01*
X97610842Y19461932D01*
X97340589Y19349990D01*
X97097368Y19187475D01*
X96890525Y18980632D01*
X96728010Y18737411D01*
X96616068Y18467158D01*
X96559000Y18180260D01*
X96559000Y17887740D01*
X96616068Y17600842D01*
X96728010Y17330589D01*
X96890525Y17087368D01*
X97022380Y16955513D01*
X96949820Y16933502D01*
X96839506Y16874537D01*
X96742815Y16795185D01*
X96663463Y16698494D01*
X96604498Y16588180D01*
X96568188Y16468482D01*
X96555928Y16344000D01*
X95121808Y16344000D01*
X95021644Y16858318D01*
X94946163Y18034000D01*
X95021644Y19209682D01*
X95246849Y20366059D01*
X95618078Y21484144D01*
X96129238Y22545577D01*
X96771934Y23532931D01*
X97199941Y24035693D01*
X97996976Y24035693D01*
X98000048Y23421443D01*
X98158798Y23262693D01*
X99408048Y23262693D01*
X99408048Y24511943D01*
X99662048Y24511943D01*
X99662048Y23262693D01*
X100911298Y23262693D01*
X101070048Y23421443D01*
X101070220Y23456000D01*
X101635928Y23456000D01*
X101635928Y21756000D01*
X101648188Y21631518D01*
X101684498Y21511820D01*
X101743463Y21401506D01*
X101822815Y21304815D01*
X101919506Y21225463D01*
X102029820Y21166498D01*
X102149518Y21130188D01*
X102274000Y21117928D01*
X103974000Y21117928D01*
X104098482Y21130188D01*
X104218180Y21166498D01*
X104328494Y21225463D01*
X104425185Y21304815D01*
X104504537Y21401506D01*
X104563502Y21511820D01*
X104587966Y21592466D01*
X104663731Y21508412D01*
X104897080Y21334359D01*
X105159901Y21209175D01*
X105307110Y21164524D01*
X105537000Y21285845D01*
X105537000Y22479000D01*
X105517000Y22479000D01*
X105517000Y22733000D01*
X105537000Y22733000D01*
X105537000Y23926155D01*
X105791000Y23926155D01*
X105791000Y22733000D01*
X105811000Y22733000D01*
X105811000Y22479000D01*
X105791000Y22479000D01*
X105791000Y21285845D01*
X106020890Y21164524D01*
X106168099Y21209175D01*
X106430920Y21334359D01*
X106664269Y21508412D01*
X106859178Y21724645D01*
X107008157Y21974748D01*
X107014559Y21992795D01*
X107016177Y21987461D01*
X107075142Y21877147D01*
X107154494Y21780456D01*
X107251185Y21701104D01*
X107361499Y21642139D01*
X107379806Y21636585D01*
X107313367Y21570146D01*
X107145380Y21318736D01*
X107029668Y21039384D01*
X106970679Y20742825D01*
X106970679Y20440457D01*
X107029668Y20143898D01*
X107145380Y19864546D01*
X107313367Y19613136D01*
X107527174Y19399329D01*
X107778584Y19231342D01*
X108057936Y19115630D01*
X108354495Y19056641D01*
X108656863Y19056641D01*
X108869204Y19098878D01*
X108861928Y19025000D01*
X108861928Y17975000D01*
X108874188Y17850518D01*
X108910498Y17730820D01*
X108945093Y17666098D01*
X108881785Y17457400D01*
X108859388Y17230000D01*
X108881785Y17002600D01*
X108948115Y16783940D01*
X109048929Y16595331D01*
X109007725Y16536882D01*
X108914728Y16327337D01*
X108906036Y16265810D01*
X109031837Y16087000D01*
X109796891Y16087000D01*
X109797600Y16086785D01*
X109968021Y16070000D01*
X110531979Y16070000D01*
X110702400Y16086785D01*
X110703109Y16087000D01*
X111468163Y16087000D01*
X111593964Y16265810D01*
X111585272Y16327337D01*
X111492275Y16536882D01*
X111451071Y16595331D01*
X111551885Y16783940D01*
X111618215Y17002600D01*
X111640612Y17230000D01*
X111618215Y17457400D01*
X111554907Y17666098D01*
X111589502Y17730820D01*
X111625812Y17850518D01*
X111638072Y17975000D01*
X111638072Y19025000D01*
X111625812Y19149482D01*
X111589502Y19269180D01*
X111530537Y19379494D01*
X111451185Y19476185D01*
X111354494Y19555537D01*
X111244180Y19614502D01*
X111124482Y19650812D01*
X111000000Y19663072D01*
X109731357Y19663072D01*
X109865978Y19864546D01*
X109981690Y20143898D01*
X110040679Y20440457D01*
X110040679Y20742825D01*
X109981690Y21039384D01*
X109865978Y21318736D01*
X109697991Y21570146D01*
X109631552Y21636585D01*
X109649859Y21642139D01*
X109760173Y21701104D01*
X109856864Y21780456D01*
X109936216Y21877147D01*
X109995181Y21987461D01*
X110031491Y22107159D01*
X110043751Y22231641D01*
X110040679Y22845891D01*
X109881929Y23004641D01*
X108632679Y23004641D01*
X108632679Y22984641D01*
X108378679Y22984641D01*
X108378679Y23004641D01*
X108358679Y23004641D01*
X108358679Y23258641D01*
X108378679Y23258641D01*
X108378679Y24507891D01*
X108632679Y24507891D01*
X108632679Y23258641D01*
X109881929Y23258641D01*
X110040679Y23417391D01*
X110043751Y24031641D01*
X110031491Y24156123D01*
X109995181Y24275821D01*
X109936216Y24386135D01*
X109856864Y24482826D01*
X109760173Y24562178D01*
X109649859Y24621143D01*
X109530161Y24657453D01*
X109405679Y24669713D01*
X108791429Y24666641D01*
X108632679Y24507891D01*
X108378679Y24507891D01*
X108219929Y24666641D01*
X107605679Y24669713D01*
X107481197Y24657453D01*
X107361499Y24621143D01*
X107251185Y24562178D01*
X107154494Y24482826D01*
X107075142Y24386135D01*
X107016177Y24275821D01*
X106979867Y24156123D01*
X106967607Y24031641D01*
X106970679Y23417391D01*
X107129427Y23258643D01*
X106995415Y23258643D01*
X106859178Y23487355D01*
X106664269Y23703588D01*
X106430920Y23877641D01*
X106168099Y24002825D01*
X106020890Y24047476D01*
X105791000Y23926155D01*
X105537000Y23926155D01*
X105307110Y24047476D01*
X105159901Y24002825D01*
X104897080Y23877641D01*
X104663731Y23703588D01*
X104587966Y23619534D01*
X104563502Y23700180D01*
X104504537Y23810494D01*
X104425185Y23907185D01*
X104328494Y23986537D01*
X104218180Y24045502D01*
X104098482Y24081812D01*
X103974000Y24094072D01*
X102274000Y24094072D01*
X102149518Y24081812D01*
X102029820Y24045502D01*
X101919506Y23986537D01*
X101822815Y23907185D01*
X101743463Y23810494D01*
X101684498Y23700180D01*
X101648188Y23580482D01*
X101635928Y23456000D01*
X101070220Y23456000D01*
X101073120Y24035693D01*
X101060860Y24160175D01*
X101024550Y24279873D01*
X100965585Y24390187D01*
X100886233Y24486878D01*
X100789542Y24566230D01*
X100679228Y24625195D01*
X100559530Y24661505D01*
X100435048Y24673765D01*
X99820798Y24670693D01*
X99662048Y24511943D01*
X99408048Y24511943D01*
X99249298Y24670693D01*
X98635048Y24673765D01*
X98510566Y24661505D01*
X98390868Y24625195D01*
X98280554Y24566230D01*
X98183863Y24486878D01*
X98104511Y24390187D01*
X98045546Y24279873D01*
X98009236Y24160175D01*
X97996976Y24035693D01*
X97199941Y24035693D01*
X97535613Y24429992D01*
X98407736Y25222031D01*
X99373983Y25896043D01*
X100418488Y26440961D01*
X101524100Y26847836D01*
X102672665Y27109988D01*
X103845323Y27223113D01*
X105022820Y27185353D01*
G37*
X105022820Y27185353D02*
X106185821Y26997328D01*
X107315230Y26662126D01*
X108392502Y26185250D01*
X109399947Y25574530D01*
X110321025Y24839995D01*
X111140610Y23993706D01*
X111845245Y23049559D01*
X112423361Y22023056D01*
X112865464Y20931054D01*
X113164295Y19791481D01*
X113314947Y18623051D01*
X113314947Y17444949D01*
X113164295Y16276519D01*
X112865464Y15136946D01*
X112423361Y14044944D01*
X111845245Y13018441D01*
X111140610Y12074294D01*
X110321025Y11228005D01*
X109399947Y10493470D01*
X108392502Y9882750D01*
X107315230Y9405874D01*
X106185821Y9070672D01*
X105022820Y8882647D01*
X103845323Y8844887D01*
X102672665Y8958012D01*
X101524100Y9220164D01*
X100418488Y9627039D01*
X99373983Y10171957D01*
X98407736Y10845969D01*
X97535613Y11638008D01*
X96771934Y12535069D01*
X96702763Y12641335D01*
X97625000Y12641335D01*
X97625000Y12358665D01*
X97680147Y12081426D01*
X97788320Y11820273D01*
X97945363Y11585241D01*
X98145241Y11385363D01*
X98380273Y11228320D01*
X98641426Y11120147D01*
X98918665Y11065000D01*
X99201335Y11065000D01*
X99478574Y11120147D01*
X99739727Y11228320D01*
X99835031Y11292000D01*
X101331928Y11292000D01*
X101344188Y11167518D01*
X101380498Y11047820D01*
X101439463Y10937506D01*
X101518815Y10840815D01*
X101615506Y10761463D01*
X101725820Y10702498D01*
X101845518Y10666188D01*
X101970000Y10653928D01*
X102584250Y10657000D01*
X102743000Y10815750D01*
X102743000Y12065000D01*
X101493750Y12065000D01*
X101335000Y11906250D01*
X101331928Y11292000D01*
X99835031Y11292000D01*
X99974759Y11385363D01*
X100174637Y11585241D01*
X100331680Y11820273D01*
X100439853Y12081426D01*
X100495000Y12358665D01*
X100495000Y12641335D01*
X100439853Y12918574D01*
X100331680Y13179727D01*
X100174637Y13414759D01*
X99974759Y13614637D01*
X99739727Y13771680D01*
X99478574Y13879853D01*
X99201335Y13935000D01*
X98918665Y13935000D01*
X98641426Y13879853D01*
X98380273Y13771680D01*
X98145241Y13614637D01*
X97945363Y13414759D01*
X97788320Y13179727D01*
X97680147Y12918574D01*
X97625000Y12641335D01*
X96702763Y12641335D01*
X96129238Y13522423D01*
X95618078Y14583856D01*
X95246849Y15701941D01*
X95121808Y16344000D01*
X96555928Y16344000D01*
X96555928Y14644000D01*
X96568188Y14519518D01*
X96604498Y14399820D01*
X96663463Y14289506D01*
X96742815Y14192815D01*
X96839506Y14113463D01*
X96949820Y14054498D01*
X97069518Y14018188D01*
X97194000Y14005928D01*
X98894000Y14005928D01*
X99018482Y14018188D01*
X99138180Y14054498D01*
X99248494Y14113463D01*
X99345185Y14192815D01*
X99424537Y14289506D01*
X99483502Y14399820D01*
X99519812Y14519518D01*
X99532072Y14644000D01*
X99532072Y14650112D01*
X99607366Y14558366D01*
X99645905Y14526738D01*
X100316738Y13855905D01*
X100348366Y13817366D01*
X100502159Y13691152D01*
X100677619Y13597367D01*
X100868005Y13539614D01*
X101016391Y13524999D01*
X101016393Y13524999D01*
X101065998Y13520113D01*
X101115603Y13524999D01*
X101503890Y13524999D01*
X101439463Y13446494D01*
X101380498Y13336180D01*
X101344188Y13216482D01*
X101331928Y13092000D01*
X101335000Y12477750D01*
X101493750Y12319000D01*
X102743000Y12319000D01*
X102743000Y12339000D01*
X102997000Y12339000D01*
X102997000Y12319000D01*
X103017000Y12319000D01*
X103017000Y12065000D01*
X102997000Y12065000D01*
X102997000Y10815750D01*
X103155750Y10657000D01*
X103770000Y10653928D01*
X103894482Y10666188D01*
X104014180Y10702498D01*
X104124494Y10761463D01*
X104221185Y10840815D01*
X104300537Y10937506D01*
X104359502Y11047820D01*
X104365056Y11066127D01*
X104431495Y10999688D01*
X104682905Y10831701D01*
X104962257Y10715989D01*
X105258816Y10657000D01*
X105561184Y10657000D01*
X105857743Y10715989D01*
X106137095Y10831701D01*
X106388505Y10999688D01*
X106602312Y11213495D01*
X106770299Y11464905D01*
X106886011Y11744257D01*
X106945000Y12040816D01*
X106945000Y12343184D01*
X106886011Y12639743D01*
X106770299Y12919095D01*
X106602312Y13170505D01*
X106420000Y13352817D01*
X106420000Y13415188D01*
X106424886Y13464793D01*
X106418956Y13524999D01*
X106405385Y13662786D01*
X106347632Y13853172D01*
X106253847Y14028632D01*
X106127633Y14182425D01*
X106089094Y14214053D01*
X105366627Y14936520D01*
X105443475Y15013368D01*
X105605990Y15256589D01*
X105717932Y15526842D01*
X105747504Y15675510D01*
X108066467Y13356547D01*
X107948320Y13179727D01*
X107840147Y12918574D01*
X107785000Y12641335D01*
X107785000Y12358665D01*
X107840147Y12081426D01*
X107948320Y11820273D01*
X108105363Y11585241D01*
X108305241Y11385363D01*
X108540273Y11228320D01*
X108801426Y11120147D01*
X109078665Y11065000D01*
X109361335Y11065000D01*
X109638574Y11120147D01*
X109899727Y11228320D01*
X110134759Y11385363D01*
X110334637Y11585241D01*
X110491680Y11820273D01*
X110599853Y12081426D01*
X110655000Y12358665D01*
X110655000Y12641335D01*
X110599853Y12918574D01*
X110491680Y13179727D01*
X110334637Y13414759D01*
X110230000Y13519396D01*
X110230000Y13581773D01*
X110234885Y13631371D01*
X110230000Y13680969D01*
X110230000Y13680978D01*
X110215385Y13829364D01*
X110157632Y14019750D01*
X110063847Y14195210D01*
X109937633Y14349003D01*
X109899100Y14380626D01*
X108625536Y15654190D01*
X108906036Y15654190D01*
X108914728Y15592663D01*
X109007725Y15383118D01*
X109139816Y15195742D01*
X109305924Y15037736D01*
X109499666Y14915172D01*
X109713596Y14832761D01*
X109939493Y14793669D01*
X110123000Y14953402D01*
X110123000Y15833000D01*
X110377000Y15833000D01*
X110377000Y14953402D01*
X110560507Y14793669D01*
X110786404Y14832761D01*
X111000334Y14915172D01*
X111194076Y15037736D01*
X111360184Y15195742D01*
X111492275Y15383118D01*
X111585272Y15592663D01*
X111593964Y15654190D01*
X111468163Y15833000D01*
X110377000Y15833000D01*
X110123000Y15833000D01*
X109031837Y15833000D01*
X108906036Y15654190D01*
X108625536Y15654190D01*
X105950630Y18329095D01*
X105919002Y18367634D01*
X105775000Y18485813D01*
X105775000Y18646260D01*
X105717932Y18933158D01*
X105605990Y19203411D01*
X105443475Y19446632D01*
X105236632Y19653475D01*
X104993411Y19815990D01*
X104723158Y19927932D01*
X104436260Y19985000D01*
X104143740Y19985000D01*
X103856842Y19927932D01*
X103586589Y19815990D01*
X103343368Y19653475D01*
X103211513Y19521620D01*
X103189502Y19594180D01*
X103130537Y19704494D01*
X103051185Y19801185D01*
X102954494Y19880537D01*
X102844180Y19939502D01*
X102724482Y19975812D01*
X102600000Y19988072D01*
X100944835Y19988072D01*
X101011059Y20147950D01*
X101070048Y20444509D01*
X101070048Y20746877D01*
X101011059Y21043436D01*
X100895347Y21322788D01*
X100727360Y21574198D01*
X100660921Y21640637D01*
X100679228Y21646191D01*
X100789542Y21705156D01*
X100886233Y21784508D01*
X100965585Y21881199D01*
X101024550Y21991513D01*
X101060860Y22111211D01*
X101073120Y22235693D01*
X101070048Y22849943D01*
X100911298Y23008693D01*
X99662048Y23008693D01*
X99662048Y22988693D01*
X99408048Y22988693D01*
X99408048Y23008693D01*
X98158798Y23008693D01*
X98000048Y22849943D01*
X97996976Y22235693D01*
X98009236Y22111211D01*
X98045546Y21991513D01*
X98104511Y21881199D01*
X98183863Y21784508D01*
X98280554Y21705156D01*
X98390868Y21646191D01*
X98409175Y21640637D01*
X98342736Y21574198D01*
X98174749Y21322788D01*
X98059037Y21043436D01*
X98000048Y20746877D01*
X98000048Y20444509D01*
X98059037Y20147950D01*
X98174749Y19868598D01*
X98342736Y19617188D01*
X98512724Y19447200D01*
X98477158Y19461932D01*
X98190260Y19519000D01*
X97897740Y19519000D01*
X97610842Y19461932D01*
X97340589Y19349990D01*
X97097368Y19187475D01*
X96890525Y18980632D01*
X96728010Y18737411D01*
X96616068Y18467158D01*
X96559000Y18180260D01*
X96559000Y17887740D01*
X96616068Y17600842D01*
X96728010Y17330589D01*
X96890525Y17087368D01*
X97022380Y16955513D01*
X96949820Y16933502D01*
X96839506Y16874537D01*
X96742815Y16795185D01*
X96663463Y16698494D01*
X96604498Y16588180D01*
X96568188Y16468482D01*
X96555928Y16344000D01*
X95121808Y16344000D01*
X95021644Y16858318D01*
X94946163Y18034000D01*
X95021644Y19209682D01*
X95246849Y20366059D01*
X95618078Y21484144D01*
X96129238Y22545577D01*
X96771934Y23532931D01*
X97199941Y24035693D01*
X97996976Y24035693D01*
X98000048Y23421443D01*
X98158798Y23262693D01*
X99408048Y23262693D01*
X99408048Y24511943D01*
X99662048Y24511943D01*
X99662048Y23262693D01*
X100911298Y23262693D01*
X101070048Y23421443D01*
X101070220Y23456000D01*
X101635928Y23456000D01*
X101635928Y21756000D01*
X101648188Y21631518D01*
X101684498Y21511820D01*
X101743463Y21401506D01*
X101822815Y21304815D01*
X101919506Y21225463D01*
X102029820Y21166498D01*
X102149518Y21130188D01*
X102274000Y21117928D01*
X103974000Y21117928D01*
X104098482Y21130188D01*
X104218180Y21166498D01*
X104328494Y21225463D01*
X104425185Y21304815D01*
X104504537Y21401506D01*
X104563502Y21511820D01*
X104587966Y21592466D01*
X104663731Y21508412D01*
X104897080Y21334359D01*
X105159901Y21209175D01*
X105307110Y21164524D01*
X105537000Y21285845D01*
X105537000Y22479000D01*
X105517000Y22479000D01*
X105517000Y22733000D01*
X105537000Y22733000D01*
X105537000Y23926155D01*
X105791000Y23926155D01*
X105791000Y22733000D01*
X105811000Y22733000D01*
X105811000Y22479000D01*
X105791000Y22479000D01*
X105791000Y21285845D01*
X106020890Y21164524D01*
X106168099Y21209175D01*
X106430920Y21334359D01*
X106664269Y21508412D01*
X106859178Y21724645D01*
X107008157Y21974748D01*
X107014559Y21992795D01*
X107016177Y21987461D01*
X107075142Y21877147D01*
X107154494Y21780456D01*
X107251185Y21701104D01*
X107361499Y21642139D01*
X107379806Y21636585D01*
X107313367Y21570146D01*
X107145380Y21318736D01*
X107029668Y21039384D01*
X106970679Y20742825D01*
X106970679Y20440457D01*
X107029668Y20143898D01*
X107145380Y19864546D01*
X107313367Y19613136D01*
X107527174Y19399329D01*
X107778584Y19231342D01*
X108057936Y19115630D01*
X108354495Y19056641D01*
X108656863Y19056641D01*
X108869204Y19098878D01*
X108861928Y19025000D01*
X108861928Y17975000D01*
X108874188Y17850518D01*
X108910498Y17730820D01*
X108945093Y17666098D01*
X108881785Y17457400D01*
X108859388Y17230000D01*
X108881785Y17002600D01*
X108948115Y16783940D01*
X109048929Y16595331D01*
X109007725Y16536882D01*
X108914728Y16327337D01*
X108906036Y16265810D01*
X109031837Y16087000D01*
X109796891Y16087000D01*
X109797600Y16086785D01*
X109968021Y16070000D01*
X110531979Y16070000D01*
X110702400Y16086785D01*
X110703109Y16087000D01*
X111468163Y16087000D01*
X111593964Y16265810D01*
X111585272Y16327337D01*
X111492275Y16536882D01*
X111451071Y16595331D01*
X111551885Y16783940D01*
X111618215Y17002600D01*
X111640612Y17230000D01*
X111618215Y17457400D01*
X111554907Y17666098D01*
X111589502Y17730820D01*
X111625812Y17850518D01*
X111638072Y17975000D01*
X111638072Y19025000D01*
X111625812Y19149482D01*
X111589502Y19269180D01*
X111530537Y19379494D01*
X111451185Y19476185D01*
X111354494Y19555537D01*
X111244180Y19614502D01*
X111124482Y19650812D01*
X111000000Y19663072D01*
X109731357Y19663072D01*
X109865978Y19864546D01*
X109981690Y20143898D01*
X110040679Y20440457D01*
X110040679Y20742825D01*
X109981690Y21039384D01*
X109865978Y21318736D01*
X109697991Y21570146D01*
X109631552Y21636585D01*
X109649859Y21642139D01*
X109760173Y21701104D01*
X109856864Y21780456D01*
X109936216Y21877147D01*
X109995181Y21987461D01*
X110031491Y22107159D01*
X110043751Y22231641D01*
X110040679Y22845891D01*
X109881929Y23004641D01*
X108632679Y23004641D01*
X108632679Y22984641D01*
X108378679Y22984641D01*
X108378679Y23004641D01*
X108358679Y23004641D01*
X108358679Y23258641D01*
X108378679Y23258641D01*
X108378679Y24507891D01*
X108632679Y24507891D01*
X108632679Y23258641D01*
X109881929Y23258641D01*
X110040679Y23417391D01*
X110043751Y24031641D01*
X110031491Y24156123D01*
X109995181Y24275821D01*
X109936216Y24386135D01*
X109856864Y24482826D01*
X109760173Y24562178D01*
X109649859Y24621143D01*
X109530161Y24657453D01*
X109405679Y24669713D01*
X108791429Y24666641D01*
X108632679Y24507891D01*
X108378679Y24507891D01*
X108219929Y24666641D01*
X107605679Y24669713D01*
X107481197Y24657453D01*
X107361499Y24621143D01*
X107251185Y24562178D01*
X107154494Y24482826D01*
X107075142Y24386135D01*
X107016177Y24275821D01*
X106979867Y24156123D01*
X106967607Y24031641D01*
X106970679Y23417391D01*
X107129427Y23258643D01*
X106995415Y23258643D01*
X106859178Y23487355D01*
X106664269Y23703588D01*
X106430920Y23877641D01*
X106168099Y24002825D01*
X106020890Y24047476D01*
X105791000Y23926155D01*
X105537000Y23926155D01*
X105307110Y24047476D01*
X105159901Y24002825D01*
X104897080Y23877641D01*
X104663731Y23703588D01*
X104587966Y23619534D01*
X104563502Y23700180D01*
X104504537Y23810494D01*
X104425185Y23907185D01*
X104328494Y23986537D01*
X104218180Y24045502D01*
X104098482Y24081812D01*
X103974000Y24094072D01*
X102274000Y24094072D01*
X102149518Y24081812D01*
X102029820Y24045502D01*
X101919506Y23986537D01*
X101822815Y23907185D01*
X101743463Y23810494D01*
X101684498Y23700180D01*
X101648188Y23580482D01*
X101635928Y23456000D01*
X101070220Y23456000D01*
X101073120Y24035693D01*
X101060860Y24160175D01*
X101024550Y24279873D01*
X100965585Y24390187D01*
X100886233Y24486878D01*
X100789542Y24566230D01*
X100679228Y24625195D01*
X100559530Y24661505D01*
X100435048Y24673765D01*
X99820798Y24670693D01*
X99662048Y24511943D01*
X99408048Y24511943D01*
X99249298Y24670693D01*
X98635048Y24673765D01*
X98510566Y24661505D01*
X98390868Y24625195D01*
X98280554Y24566230D01*
X98183863Y24486878D01*
X98104511Y24390187D01*
X98045546Y24279873D01*
X98009236Y24160175D01*
X97996976Y24035693D01*
X97199941Y24035693D01*
X97535613Y24429992D01*
X98407736Y25222031D01*
X99373983Y25896043D01*
X100418488Y26440961D01*
X101524100Y26847836D01*
X102672665Y27109988D01*
X103845323Y27223113D01*
X105022820Y27185353D01*
M02*
