G04 #@! TF.GenerationSoftware,KiCad,Pcbnew,5.1.5+dfsg1-2build2*
G04 #@! TF.CreationDate,2022-04-02T17:49:34+02:00*
G04 #@! TF.ProjectId,rincePile,72696e63-6550-4696-9c65-2e6b69636164,rev?*
G04 #@! TF.SameCoordinates,Original*
G04 #@! TF.FileFunction,Legend,Bot*
G04 #@! TF.FilePolarity,Positive*
%FSLAX46Y46*%
G04 Gerber Fmt 4.6, Leading zero omitted, Abs format (unit mm)*
G04 Created by KiCad (PCBNEW 5.1.5+dfsg1-2build2) date 2022-04-02 17:49:34*
%MOMM*%
%LPD*%
G04 APERTURE LIST*
%ADD10C,0.120000*%
%ADD11C,0.150000*%
G04 APERTURE END LIST*
D10*
X97990048Y24425693D02*
X101080048Y24425693D01*
X102035048Y21865693D02*
G75*
G03X102035048Y21865693I-2500000J0D01*
G01*
X99534586Y18875693D02*
G75*
G03X101079878Y24425693I462J2990000D01*
G01*
X99535510Y18875693D02*
G75*
G02X97990218Y24425693I-462J2990000D01*
G01*
X101580000Y10647000D02*
X101580000Y13737000D01*
X106640000Y12192000D02*
G75*
G03X106640000Y12192000I-2500000J0D01*
G01*
X107130000Y12191538D02*
G75*
G03X101580000Y13736830I-2990000J462D01*
G01*
X107130000Y12192462D02*
G75*
G02X101580000Y10647170I-2990000J-462D01*
G01*
X106960679Y24421641D02*
X110050679Y24421641D01*
X111005679Y21861641D02*
G75*
G03X111005679Y21861641I-2500000J0D01*
G01*
X108505217Y18871641D02*
G75*
G03X110050509Y24421641I462J2990000D01*
G01*
X108506141Y18871641D02*
G75*
G02X106960849Y24421641I-462J2990000D01*
G01*
D11*
X98238095Y21297619D02*
X98238095Y22297619D01*
X98000000Y22297619D01*
X97857142Y22250000D01*
X97761904Y22154761D01*
X97714285Y22059523D01*
X97666666Y21869047D01*
X97666666Y21726190D01*
X97714285Y21535714D01*
X97761904Y21440476D01*
X97857142Y21345238D01*
X98000000Y21297619D01*
X98238095Y21297619D01*
X96714285Y21297619D02*
X97285714Y21297619D01*
X97000000Y21297619D02*
X97000000Y22297619D01*
X97095238Y22154761D01*
X97190476Y22059523D01*
X97285714Y22011904D01*
X104988095Y9453619D02*
X104988095Y10453619D01*
X104750000Y10453619D01*
X104607142Y10406000D01*
X104511904Y10310761D01*
X104464285Y10215523D01*
X104416666Y10025047D01*
X104416666Y9882190D01*
X104464285Y9691714D01*
X104511904Y9596476D01*
X104607142Y9501238D01*
X104750000Y9453619D01*
X104988095Y9453619D01*
X104035714Y10358380D02*
X103988095Y10406000D01*
X103892857Y10453619D01*
X103654761Y10453619D01*
X103559523Y10406000D01*
X103511904Y10358380D01*
X103464285Y10263142D01*
X103464285Y10167904D01*
X103511904Y10025047D01*
X104083333Y9453619D01*
X103464285Y9453619D01*
X111238095Y21297619D02*
X111238095Y22297619D01*
X111000000Y22297619D01*
X110857142Y22250000D01*
X110761904Y22154761D01*
X110714285Y22059523D01*
X110666666Y21869047D01*
X110666666Y21726190D01*
X110714285Y21535714D01*
X110761904Y21440476D01*
X110857142Y21345238D01*
X111000000Y21297619D01*
X111238095Y21297619D01*
X110333333Y22297619D02*
X109714285Y22297619D01*
X110047619Y21916666D01*
X109904761Y21916666D01*
X109809523Y21869047D01*
X109761904Y21821428D01*
X109714285Y21726190D01*
X109714285Y21488095D01*
X109761904Y21392857D01*
X109809523Y21345238D01*
X109904761Y21297619D01*
X110190476Y21297619D01*
X110285714Y21345238D01*
X110333333Y21392857D01*
M02*
